<?xml version="1.0" encoding="UTF-8"?>
<svg id="Layer_1" data-name="Layer 1" xmlns="http://www.w3.org/2000/svg" xmlns:xlink="http://www.w3.org/1999/xlink" viewBox="0 0 300 300">
  <defs>
    <style>
      .cls-1 {
        fill: url(#linear-gradient-2);
      }

      .cls-2 {
        mask: url(#mask-1);
      }

      .cls-3 {
        fill: #fff;
      }

      .cls-4 {
        mask: url(#mask);
      }

      .cls-5 {
        fill: none;
      }

      .cls-6 {
        fill: url(#linear-gradient-4);
      }

      .cls-7 {
        fill: red;
      }

      .cls-8 {
        mask: url(#mask-2);
      }

      .cls-9 {
        fill: #ccc;
        fill-rule: evenodd;
      }

      .cls-10 {
        fill: url(#linear-gradient-3);
      }

      .cls-11 {
        clip-path: url(#clippath-1);
      }

      .cls-12 {
        fill: url(#linear-gradient-5);
      }

      .cls-13 {
        fill: url(#linear-gradient-6);
      }

      .cls-14 {
        fill: url(#linear-gradient);
      }

      .cls-15 {
        clip-path: url(#clippath);
      }

      .cls-16 {
        mask: url(#mask-3);
      }
    </style>
    <clipPath id="clippath">
      <path id="SVGID" class="cls-5" d="M211.91,33.01c8.03,11.91,12.72,26.27,12.72,41.71,0,.69,0,1.37-.03,2.06h0s0,123.25,0,123.25h-40.96c-11.28,0-21.53-4.61-28.95-12.03-4.53-4.53-8.01-10.11-10.04-16.34-5.72,5.53-13.05,9.41-21.22,10.86v17.51h-7.25c-11.31,0-21.56-4.59-28.98-12-7.42-7.42-12-17.66-12-28.98h.03v-82.28c-.02-.68-.03-1.36-.03-2.05,0-20.63,8.36-39.31,21.88-52.83C110.61,8.36,129.29,0,149.92,0h73.78l.85,6.29c.48,3.6.24,7.22-.67,10.63-.91,3.41-2.51,6.66-4.73,9.55-2.03,2.64-4.49,4.84-7.23,6.54"/>
    </clipPath>
    <linearGradient id="linear-gradient" x1="45.91" y1="206.05" x2="288.46" y2="-40.76" gradientUnits="userSpaceOnUse">
      <stop offset="0" stop-color="#f0f"/>
      <stop offset="1" stop-color="#16ea9e"/>
    </linearGradient>
    <clipPath id="clippath-1">
      <path id="SVGID-2" data-name="SVGID" class="cls-5" d="M149.92,36.45c10.56,0,20.13,4.28,27.06,11.21,6.92,6.92,11.21,16.49,11.21,27.05s-4.28,20.13-11.21,27.06c-6.93,6.92-16.49,11.21-27.06,11.21s-20.13-4.28-27.05-11.21c-6.92-6.92-11.21-16.49-11.21-27.06s4.28-20.13,11.21-27.05c6.92-6.92,16.49-11.21,27.05-11.21"/>
    </clipPath>
    <linearGradient id="linear-gradient-2" x1="33.16" y1="193.52" x2="275.71" y2="-53.29" xlink:href="#linear-gradient"/>
    <linearGradient id="linear-gradient-3" x1="-.12" y1="602.06" x2="151.08" y2="392.81" gradientTransform="translate(49.37 -379.27)" gradientUnits="userSpaceOnUse">
      <stop offset="0" stop-color="#fff"/>
      <stop offset="1" stop-color="#000"/>
    </linearGradient>
    <mask id="mask" x="89.71" y="32.14" width="120.35" height="102.79" maskUnits="userSpaceOnUse">
      <rect class="cls-10" x="89.71" y="32.14" width="120.35" height="102.79"/>
    </mask>
    <linearGradient id="linear-gradient-4" x1="52.15" y1="683.48" x2="145.14" y2="459.19" gradientTransform="translate(61.26 -374.99)" xlink:href="#linear-gradient-3"/>
    <mask id="mask-1" x="157.17" y="118.92" width="52.98" height="40.25" maskUnits="userSpaceOnUse">
      <rect class="cls-6" x="157.17" y="118.92" width="52.98" height="40.25"/>
    </mask>
    <linearGradient id="linear-gradient-5" x1="18.91" y1="667.37" x2="111.96" y2="443.08" gradientTransform="translate(55.32 -375.13)" xlink:href="#linear-gradient-3"/>
    <mask id="mask-2" x="123.45" y="144.6" width="18.33" height="13.82" maskUnits="userSpaceOnUse">
      <rect class="cls-12" x="123.45" y="144.6" width="18.33" height="13.82"/>
    </mask>
    <linearGradient id="linear-gradient-6" x1="-10.06" y1="654.86" x2="82.99" y2="430.57" gradientTransform="translate(49.37 -377.07)" xlink:href="#linear-gradient-3"/>
    <mask id="mask-3" x="89.69" y="118.92" width="19.25" height="28.47" maskUnits="userSpaceOnUse">
      <rect class="cls-13" x="89.69" y="118.92" width="19.25" height="28.47"/>
    </mask>
  </defs>
  <g class="cls-15">
    <rect class="cls-14" x="75.21" width="149.83" height="200.02"/>
  </g>
  <path class="cls-3" d="M192.49,32.14c-10.89-10.89-25.95-17.63-42.57-17.63s-31.68,6.74-42.57,17.63c-10.89,10.89-17.63,25.95-17.63,42.57v.77s0,0,0,0v.08s.01.65.01.65v.07c.41,16,7.07,30.44,17.61,40.99,10.38,10.38,24.54,16.99,40.24,17.59h.05s.5.02.5.02h.22s.03,0,.03,0h.25s.46.01.46.01h.03s.02,0,.02,0h.76c16.63,0,31.68-6.73,42.57-17.63,10.89-10.89,17.63-25.94,17.63-42.57s-6.74-31.68-17.63-42.57"/>
  <g class="cls-11">
    <rect class="cls-1" x="111.66" y="36.45" width="76.52" height="76.53"/>
  </g>
  <path class="cls-3" d="M170.63,48.83c-2.51-2.51-5.99-4.07-9.83-4.07s-7.32,1.56-9.83,4.07c-2.51,2.52-4.07,5.99-4.07,9.83s1.56,7.32,4.07,9.83c2.52,2.51,5.99,4.07,9.83,4.07s7.32-1.56,9.83-4.07c2.52-2.52,4.07-5.99,4.07-9.83s-1.56-7.32-4.07-9.83"/>
  <path class="cls-7" d="M176.84,144.43c-.45.17-.89.34-1.35.5"/>
  <path class="cls-3" d="M108.94,137.19c-4.27-2.81-8.24-6.05-11.85-9.65-2.68-2.68-5.15-5.56-7.4-8.62v40.11h.03c0,7.31,2.96,13.93,7.75,18.72,3.14,3.14,7.07,5.5,11.47,6.75v-47.32Z"/>
  <path class="cls-3" d="M141.78,148.99c-6.39-.69-12.53-2.19-18.33-4.39v23.04c4.4-1.25,8.33-3.61,11.47-6.75,3.25-3.25,5.65-7.33,6.87-11.91"/>
  <path class="cls-3" d="M180.69,142.81c-.69.31-1.39.62-2.1.91l-.17.07-.67.27h0s-.65.26-.65.26l-.25.1c-.45.17-.9.34-1.35.5l-.74.27h-.01s-.76.27-.76.27c-.76.26-1.53.51-2.3.74h-.02s-.74.22-.74.22l-.07.02c-3.87,1.13-7.87,1.95-11.98,2.44h-.05c-.55.07-1.09.13-1.64.18v9.96c0,7.27,2.98,13.89,7.78,18.69,4.8,4.8,11.42,7.78,18.69,7.78h26.51v-66.59s-.11.14-.11.14l-.11.14-.32.43-.11.14-.11.14-.32.42-.11.14-.11.14-.11.14-.06.08-.05.06-.11.14-.11.14-.11.14-.11.14-.11.14-.11.14-.11.14-.11.14-.11.14-.07.09-.04.05-.11.14-.11.14-.11.14-.11.14-.11.14-.12.13-.11.14-.12.14-.12.13-.12.13-.12.14-.12.13-.12.13-.12.13-.09.1-.03.03-.12.13-.45.5h0s-.02.03-.02.03l-.12.13-.24.26-.12.13-.1.11-.02.02-.04.04-.56.59h-.01s-.49.52-.49.52l-.12.12h0s-.13.13-.13.13l-.12.13-.37.38-.56.55-.08.08-.23.22-.38.36-.13.12-.49.46-.2.18-.45.41-.19.17-.4.36-.29.26-.08.07-.48.42-.12.1-.57.48-.04.03-.65.55-.57.46-.13.11-.49.39-.22.17-.17.13-.39.3-.33.26-.32.24-.35.26-.35.26-.35.26-.22.16-.48.34-.65.46h-.01s-.64.45-.64.45l-.46.31-.27.18-.44.29-.23.15-.47.3-.22.14-.43.27-.4.25-.35.21-.27.16-.46.27-.03.02-.66.39h-.03s-.69.41-.69.41l-.07.04-.63.35-.04.02-.44.24-.32.17-.42.22-.32.17-.47.24-.22.11-.56.28-.15.08-.59.28-.1.05-.64.3-.73.33Z"/>
  <path class="cls-3" d="M194.17,14.51c2.94,2.16,5.72,4.54,8.3,7.1.51-.21.99-.45,1.47-.72,1.46-.84,2.74-1.94,3.76-3.26.73-.95,1.32-2,1.75-3.12h-15.28Z"/>
  <g class="cls-4">
    <path class="cls-9" d="M107.35,32.14c-14.95,19.02-16.51,45.33-3.91,65.98,12.6,20.65,36.7,31.31,60.45,26.73,23.75-4.58,42.16-23.44,46.17-47.3-1.27,26.87-20.21,49.64-46.4,55.78-26.19,6.14-53.27-5.83-66.35-29.34-13.08-23.51-8.98-52.83,10.04-71.85"/>
  </g>
  <g class="cls-2">
    <path class="cls-9" d="M170.84,146.46c-3.87,1.13-7.87,1.95-11.98,2.44h-.05c-.55.07-1.09.13-1.64.18v10.09c11.56-1.12,22.92-4.91,33.12-11.38,7.82-4.96,14.5-11.22,19.86-18.36v-10.5l-.1.14-.11.14-.32.43-.11.14-.11.14-.32.42-.11.14-.11.14-.11.14-.06.08-.05.06-.11.14-.11.14-.11.14-.11.14-.11.14-.11.14-.11.14-.11.14-.11.14-.07.09-.04.05-.11.14-.11.14-.12.14-.11.14-.11.14-.12.13-.11.14-.12.14-.12.13-.12.13-.12.14-.12.13-.12.13-.12.13-.09.1-.03.03-.12.13-.45.5-.02.03-.12.13-.24.26-.12.13-.1.11-.02.02-.04.04-.57.6-.49.51-.13.13-.12.13-.12.13-.37.38-.56.55-.08.08-.23.22-.38.37-.13.12-.49.46-.2.18-.45.41-.19.17-.4.36-.29.26-.08.07-.48.42-.12.1-.57.48-.04.03-.65.55-.56.46-.13.11-.49.39-.22.17-.17.13-.39.3-.33.26-.32.24-.35.26-.35.26-.35.26-.21.16-.48.34-.66.46-.64.44-.46.31-.27.18-.44.29-.23.15-.47.3-.22.14-.43.27-.4.25-.35.21-.27.16-.46.27-.03.02-.66.38h-.03s-.69.41-.69.41l-.07.04-.63.35-.04.02-.44.24-.32.17-.42.22-.32.17-.47.24-.22.11-.56.28-.15.08-.59.28-.1.05-.64.3-.73.34c-.69.31-1.4.62-2.1.91l-.18.07-.68.27-.65.26-.25.1c-.45.17-.9.34-1.35.5l-.76.27-.76.26c-.76.26-1.53.51-2.3.74h-.02s-.74.22-.74.22l-.07.02Z"/>
  </g>
  <g class="cls-8">
    <path class="cls-9" d="M137.1,158.42c2.15-2.76,3.76-5.96,4.68-9.43-6.39-.69-12.53-2.19-18.33-4.39v10.12c4.45,1.67,9.02,2.91,13.65,3.71"/>
  </g>
  <g class="cls-16">
    <path class="cls-9" d="M108.94,147.39v-10.2c-4.28-2.81-8.24-6.05-11.85-9.65-2.68-2.68-5.15-5.56-7.4-8.62v10.5c5.22,6.96,11.7,13.07,19.25,17.97"/>
  </g>
  <path d="M282.43,228.22v24.02l-19.9-24.02h-10.5v45.08h12.49v-24.02l19.9,24.02h10.5v-45.08h-12.49ZM216.29,255.14l5.79-14.42,5.8,14.42h-11.59ZM235.16,273.3h13.27l-19.96-45.08h-12.56l-19.9,45.08h13.01l3.54-8.76h19.06l3.54,8.76ZM177.14,274.2c8.31,0,15-3.03,19.38-8.5l-8.11-7.34c-2.83,3.41-6.31,5.28-10.63,5.28-7.4,0-12.56-5.15-12.56-12.88s5.15-12.88,12.56-12.88c4.32,0,7.79,1.87,10.63,5.28l8.11-7.34c-4.38-5.47-11.08-8.5-19.38-8.5-14.3,0-24.79,9.72-24.79,23.44s10.5,23.44,24.79,23.44ZM124.85,274.2c13.33,0,21.19-7.53,21.19-20.99v-24.99h-12.56v24.6c0,7.73-3.22,10.82-8.5,10.82s-8.56-3.09-8.56-10.82v-24.6h-12.75v24.99c0,13.46,7.86,20.99,21.19,20.99ZM72.31,263.64c-6.83,0-12.17-5.09-12.17-12.88s5.34-12.88,12.17-12.88,12.17,5.09,12.17,12.88-5.34,12.88-12.17,12.88ZM72.31,274.2c14.42,0,25.05-9.92,25.05-23.44s-10.62-23.44-25.05-23.44-25.05,9.92-25.05,23.44,10.62,23.44,25.05,23.44ZM18.92,273.3h12.75v-34.97h13.78v-10.11H5.08v10.11h13.84v34.97Z"/>
  <path d="M270.73,300c2.71,0,5.05-.95,6.65-2.74l-1.62-1.57c-1.34,1.42-2.99,2.09-4.9,2.09-3.93,0-6.84-2.84-6.84-6.69s2.91-6.7,6.84-6.7c1.92,0,3.56.65,4.9,2.07l1.62-1.57c-1.59-1.79-3.93-2.71-6.62-2.71-5.3,0-9.23,3.76-9.23,8.91s3.93,8.91,9.21,8.91M243.24,299.8h2.49v-17.42h-2.49v17.42ZM220.11,299.8h2.46v-15.26h5.98v-2.16h-14.41v2.16h5.97v15.26ZM194.54,300c4.61,0,6.75-2.29,6.75-4.95,0-6.39-10.55-3.72-10.55-7.99,0-1.52,1.27-2.77,4.23-2.77,1.54,0,3.26.45,4.78,1.42l.82-1.99c-1.44-1-3.56-1.54-5.6-1.54-4.58,0-6.67,2.29-6.67,4.98,0,6.47,10.55,3.79,10.55,8.04,0,1.52-1.29,2.68-4.31,2.68-2.24,0-4.46-.84-5.75-2.01l-.92,1.94c1.39,1.29,4.01,2.19,6.67,2.19ZM169.77,299.8h2.49v-17.42h-2.49v17.42ZM146.41,292.38h-4.23v-7.84h4.23c3.19,0,4.85,1.42,4.85,3.91s-1.67,3.93-4.85,3.93ZM154.05,299.8l-4.13-5.85c2.44-.87,3.83-2.81,3.83-5.5,0-3.78-2.74-6.07-7.27-6.07h-6.79v17.42h2.49v-5.3h4.31c.37,0,.75-.03,1.1-.05l3.76,5.35h2.71ZM115.24,300c4.6,0,7.37-2.66,7.37-7.72v-9.91h-2.42v9.81c0,3.86-1.79,5.6-4.93,5.6s-4.9-1.74-4.9-5.6v-9.81h-2.49v9.91c0,5.05,2.79,7.72,7.37,7.72ZM85.22,299.8h2.47v-15.26h5.97v-2.16h-14.41v2.16h5.97v15.26ZM57.63,300c4.6,0,7.37-2.66,7.37-7.72v-9.91h-2.41v9.81c0,3.86-1.79,5.6-4.93,5.6s-4.9-1.74-4.9-5.6v-9.81h-2.49v9.91c0,5.05,2.79,7.72,7.37,7.72ZM34.92,284.54v-2.16h-12.3v17.42h2.49v-7.04h8.74v-2.14h-8.74v-6.07h9.81Z"/>
</svg>